<?xml version="1.0" encoding="UTF-8" standalone="no"?>
<svg width="105px" height="45px" viewBox="0 0 105 45" version="1.1" xmlns="http://www.w3.org/2000/svg" xmlns:xlink="http://www.w3.org/1999/xlink" xmlns:sketch="http://www.bohemiancoding.com/sketch/ns">
    <title>logo-dark</title>
    <description>Created with Sketch (http://www.bohemiancoding.com/sketch)</description>
    <defs></defs>
    <g id="Page-1" stroke="none" stroke-width="1" fill="none" fill-rule="evenodd" sketch:type="MSPage">
        <g id="logo-dark" sketch:type="MSArtboardGroup">
            <g id="Imported-Layers-+-Path" sketch:type="MSLayerGroup" transform="translate(2.250000, 3.750000)">
                <path d="M88.9724941,26.2893082 L95.5824197,19.1360804 L91.5581441,19.1360804 L86.5956343,24.4981122 L84.6204973,26.9977862 L84.5315192,26.9977862 L84.7094753,23.7905231 L84.7094753,12.75 L81.2481402,12.75 L81.2481402,35.7937585 L84.7094753,35.7937585 L84.7094753,30.0850436 L86.6255873,28.4894124 L91.8999608,35.7937585 L96,35.7937585 L88.9724941,26.2893082 L88.9724941,26.2893082 L88.9724941,26.2893082 L88.9724941,26.2893082 Z M57.4205168,35.7937585 L60.911805,35.7937585 L60.911805,19.1360804 L57.4205168,19.1360804 L57.4205168,19.1360804 L57.4205168,35.7937585 L57.4205168,35.7937585 Z M72.8260572,18.8347328 C71.7186766,18.8347328 70.7082028,19.050743 69.7963978,19.4827635 C68.8854738,19.913895 68.1824589,20.5263685 67.6873532,21.3192949 L67.509397,21.3192949 L67.0195771,19.1351914 L64.285924,19.1351914 L64.285924,35.7937585 L67.7763312,35.7937585 L67.7763312,27.4938097 C67.7763312,25.4163779 68.118148,23.9354189 68.8017815,23.0509325 C69.4845341,22.168224 70.5637236,21.7264253 72.040231,21.7264253 C73.1502545,21.7264253 73.9589859,22.0428848 74.4690681,22.6749147 C74.9791504,23.3078336 75.2346319,24.2669902 75.2346319,25.5514955 L75.2346319,35.7937585 L78.7391347,35.7937585 L78.7391347,24.9345773 C78.7391347,20.867718 76.7684025,18.8347328 72.8260572,18.8347328 L72.8260572,18.8347328 L72.8260572,18.8347328 L72.8260572,18.8347328 Z M59.3956539,12.75 C58.7631167,12.75 58.2750587,12.9206748 57.933242,13.2620243 C57.5914252,13.6033738 57.4205168,14.090508 57.4205168,14.7234268 C57.4205168,15.3252331 57.5914252,15.7999223 57.933242,16.1457165 C58.2750587,16.4923995 58.7631167,16.6657411 59.3956539,16.6657411 C60.0114526,16.6657411 60.4880579,16.4923995 60.8298747,16.1457165 C61.1716915,15.7999223 61.3425998,15.3252331 61.3425998,14.7234268 C61.3425998,14.090508 61.1716915,13.6033738 60.8298747,13.2620243 C60.4880579,12.9206748 60.0114526,12.75 59.3956539,12.75 L59.3956539,12.75 L59.3956539,12.75 L59.3956539,12.75 Z M50.6370399,32.6282752 C50.2150548,32.2220338 50.0053837,31.5917817 50.0053837,30.7384079 L50.0053837,21.8224299 L54.6859828,21.8224299 L54.6859828,19.141414 L50.0053837,19.141414 L50.0053837,15.4363495 L46.5,15.4363495 L46.5722396,19.141414 L46.5,21.8224299 L46.5,30.7979663 C46.5,34.332356 48.1535826,36.0995508 51.4607478,36.0995508 C52.1153093,36.0995508 52.7460846,36.0417703 53.3557165,35.9270982 C53.9644675,35.8115372 54.4622161,35.6684193 54.8480814,35.4968556 L54.8480814,32.8318404 C53.9961825,33.1029644 53.1460454,33.2380819 52.2932655,33.2380819 C51.6096319,33.2380819 51.0572631,33.0345167 50.6370399,32.6282752 C50.6370399,32.6282752 51.0572631,33.0345167 50.6370399,32.6282752 L50.6370399,32.6282752 L50.6370399,32.6282752 Z M50.6370399,32.6282752" id="Imported-Layers" fill="#262525" sketch:type="MSShapeGroup"></path>
                <path id="Path" fill="#00BDBD" sketch:type="MSShapeGroup"></path>
                <path d="M24,36 L24,10.5 L13.5,10.5 L13.5,36 L24,36 Z M24,36" id="Path" fill="#00BDBD" sketch:type="MSShapeGroup"></path>
                <path d="M27.1947389,0 L27,36 L37.4981205,36 L37.4981205,11.1682194 C37.2284078,5.46637243 32.7692204,0.900291621 27,0 L27.1947389,0 Z M27.1947389,0" id="Path" fill="#00BDBD" sketch:type="MSShapeGroup"></path>
                <path d="M10.5,36 L10.5,19.5 L0.813165814,19.5 C0.287676585,20.8402743 0,22.1529364 0,23.6678304 C0,29.7557477 4.42906513,35.0062222 10.5,36 Z M10.5,36" id="Path" fill="#00BDBD" sketch:type="MSShapeGroup"></path>
            </g>
        </g>
    </g>
</svg>